<svg width="65" height="24" viewBox="0 0 65 24" fill="none" xmlns="http://www.w3.org/2000/svg">
<path d="M2.4375 0.453125V23.5391H21.5625V0.453125H2.4375ZM4.91477 21.1081V13.2346L19.0854 21.1081H4.91477ZM19.0854 18.2321L7.44773 11.9732L19.0854 5.79405V18.2321V18.2321ZM4.91477 10.7597V2.92597H19.0854L4.91477 10.7597Z" fill="#EF3837"/>
<path d="M32.8143 19.7954V4.20477H35.8656V19.7954H32.8143Z" fill="white"/>
<path d="M39.2524 19.7954V4.20477H45.0432C46.1419 4.20477 47.1145 4.42007 47.9608 4.85067C48.8072 5.28126 49.4679 5.87519 49.9431 6.63245C50.4182 7.37486 50.6558 8.24348 50.6558 9.23831C50.6558 10.2183 50.4034 11.0943 49.8985 11.8664C49.4085 12.6237 48.7329 13.2176 47.8718 13.6482C47.0106 14.064 46.0306 14.2719 44.9318 14.2719H42.3037V19.7954H39.2524ZM47.8272 19.7954L44.2191 13.5369L46.5577 11.8664L51.2794 19.7954H47.8272ZM42.3037 11.4878H45.0654C45.5257 11.4878 45.9341 11.3913 46.2904 11.1983C46.6616 11.0053 46.9512 10.738 47.159 10.3965C47.3818 10.055 47.4931 9.66891 47.4931 9.23831C47.4931 8.57014 47.2481 8.02818 46.7581 7.61243C46.283 7.19668 45.6668 6.98881 44.9095 6.98881H42.3037V11.4878Z" fill="white"/>
<path d="M58.8416 20.0627C58.0546 20.0627 57.3196 19.9661 56.6366 19.7731C55.9536 19.5801 55.3448 19.3128 54.8103 18.9713C54.2757 18.615 53.8303 18.2215 53.4739 17.7909C53.1324 17.3603 52.9097 16.9074 52.8058 16.4323L55.7903 15.5414C55.9833 16.0462 56.3248 16.4842 56.8148 16.8554C57.3048 17.2118 57.921 17.3974 58.6634 17.4123C59.4503 17.4271 60.0888 17.2563 60.5788 16.9C61.0836 16.5436 61.3361 16.0833 61.3361 15.5191C61.3361 15.0291 61.1356 14.6208 60.7347 14.2941C60.3487 13.9526 59.8141 13.6928 59.1311 13.5146L57.1043 12.9801C56.3471 12.787 55.6789 12.4975 55.0998 12.1114C54.5207 11.7105 54.0679 11.2205 53.7412 10.6415C53.4145 10.0624 53.2512 9.38679 53.2512 8.61469C53.2512 7.14471 53.7338 6.0014 54.6989 5.18475C55.6789 4.35325 57.0598 3.9375 58.8416 3.9375C59.8364 3.9375 60.705 4.08598 61.4474 4.38295C62.2047 4.66506 62.8357 5.07339 63.3406 5.60792C63.8454 6.14246 64.2315 6.77351 64.4987 7.50107L61.5365 8.41424C61.3583 7.9094 61.0317 7.4788 60.5565 7.12244C60.0814 6.76608 59.48 6.58791 58.7525 6.58791C58.0101 6.58791 57.4236 6.75866 56.993 7.10017C56.5772 7.44168 56.3693 7.92425 56.3693 8.54787C56.3693 9.03786 56.5327 9.42391 56.8593 9.70603C57.2008 9.98815 57.6611 10.2034 58.2402 10.3519L60.2893 10.8642C61.6256 11.1909 62.665 11.7774 63.4074 12.6237C64.1498 13.4701 64.521 14.4129 64.521 15.4523C64.521 16.3729 64.2983 17.1821 63.8528 17.88C63.4074 18.563 62.7615 19.0975 61.9151 19.4836C61.0688 19.8696 60.0443 20.0627 58.8416 20.0627Z" fill="white"/>
</svg>
